<svg xmlns="http://www.w3.org/2000/svg" viewBox="0 0 1200 800">
  <defs>
    <linearGradient id="bg" x1="0" y1="0" x2="0" y2="1"><stop offset="0%" stop-color="#f8f6f0"/><stop offset="100%" stop-color="#ede8dc"/></linearGradient>
    <linearGradient id="screen" x1="0" y1="0" x2="0" y2="1"><stop offset="0%" stop-color="#0a1520"/><stop offset="100%" stop-color="#111d2c"/></linearGradient>
    <linearGradient id="gold" x1="0" y1="0" x2="1" y2="0"><stop offset="0%" stop-color="#c9a84c"/><stop offset="100%" stop-color="#e8c96a"/></linearGradient>
    <linearGradient id="wood" x1="0" y1="0" x2="0" y2="1"><stop offset="0%" stop-color="#d4b896"/><stop offset="100%" stop-color="#b89070"/></linearGradient>
  </defs>
  <rect width="1200" height="800" fill="url(#bg)"/>
  <!-- Desk surface -->
  <rect x="0" y="550" width="1200" height="250" fill="url(#wood)"/>
  <rect x="0" y="550" width="1200" height="4" fill="#c8a070" opacity="0.6"/>
  <!-- Monitor stand -->
  <rect x="540" y="520" width="120" height="40" rx="4" fill="#888"/>
  <rect x="470" y="555" width="260" height="15" rx="8" fill="#777"/>
  <!-- Monitor -->
  <rect x="160" y="80" width="880" height="470" rx="16" fill="#222"/>
  <rect x="168" y="88" width="864" height="454" rx="12" fill="url(#screen)"/>
  <!-- Dashboard interface on screen -->
  <!-- Sidebar -->
  <rect x="168" y="88" width="160" height="454" rx="12" fill="#0d1828"/>
  <circle cx="248" cy="140" r="28" fill="url(#gold)" opacity="0.8"/>
  <text x="236" y="146" font-size="14" fill="#3a2003" font-family="sans-serif" font-weight="bold">SK</text>
  <rect x="188" y="185" width="120" height="32" rx="8" fill="#c9a84c" opacity="0.25"/>
  <rect x="198" y="196" width="80" height="8" rx="4" fill="#c9a84c" opacity="0.7"/>
  <rect x="188" y="228" width="120" height="32" rx="8"/>
  <rect x="198" y="239" width="70" height="8" rx="4" fill="white" opacity="0.3"/>
  <rect x="188" y="270" width="120" height="32" rx="8"/>
  <rect x="198" y="281" width="90" height="8" rx="4" fill="white" opacity="0.3"/>
  <rect x="188" y="312" width="120" height="32" rx="8"/>
  <rect x="198" y="323" width="75" height="8" rx="4" fill="white" opacity="0.3"/>
  <rect x="188" y="354" width="120" height="32" rx="8"/>
  <rect x="198" y="365" width="85" height="8" rx="4" fill="white" opacity="0.3"/>
  <!-- Main content area -->
  <!-- Header -->
  <rect x="328" y="88" width="704" height="60" fill="#0a1422"/>
  <rect x="348" y="106" width="200" height="14" rx="7" fill="white" opacity="0.2"/>
  <circle cx="970" cy="118" r="18" fill="#1a2a3a"/>
  <rect x="990" y="108" width="70" height="6" rx="3" fill="white" opacity="0.2"/>
  <rect x="990" y="118" width="50" height="6" rx="3" fill="white" opacity="0.15"/>
  <!-- Balance cards row -->
  <rect x="328" y="160" width="210" height="100" rx="12" fill="url(#gold)"/>
  <rect x="548" y="160" width="210" height="100" rx="12" fill="#1a2a3a"/>
  <rect x="768" y="160" width="264" height="100" rx="12" fill="#1a2a3a"/>
  <!-- Balance texts -->
  <rect x="348" y="178" width="100" height="8" rx="4" fill="#5a3a05" opacity="0.5"/>
  <rect x="348" y="198" width="150" height="16" rx="4" fill="#3a2003" opacity="0.8"/>
  <rect x="348" y="222" width="80" height="8" rx="4" fill="#5a3a05" opacity="0.4"/>
  <rect x="568" y="178" width="100" height="8" rx="4" fill="white" opacity="0.3"/>
  <rect x="568" y="198" width="130" height="16" rx="4" fill="white" opacity="0.5"/>
  <rect x="568" y="222" width="80" height="8" rx="4" fill="white" opacity="0.2"/>
  <rect x="788" y="178" width="100" height="8" rx="4" fill="white" opacity="0.3"/>
  <rect x="788" y="198" width="150" height="16" rx="4" fill="white" opacity="0.5"/>
  <!-- Chart area -->
  <rect x="328" y="272" width="450" height="200" rx="12" fill="#0d1828"/>
  <polyline points="348,440 390,410 432,420 474,390 516,400 558,370 600,382 642,355 684,365 726,340 748,348" fill="none" stroke="#c9a84c" stroke-width="2"/>
  <polygon points="348,440 390,410 432,420 474,390 516,400 558,370 600,382 642,355 684,365 726,340 748,348 748,452 348,452" fill="#c9a84c" opacity="0.08"/>
  <!-- Grid lines in chart -->
  <line x1="348" y1="380" x2="748" y2="380" stroke="white" stroke-width="0.5" opacity="0.1"/>
  <line x1="348" y1="410" x2="748" y2="410" stroke="white" stroke-width="0.5" opacity="0.1"/>
  <line x1="348" y1="440" x2="748" y2="440" stroke="white" stroke-width="0.5" opacity="0.1"/>
  <!-- Transaction list -->
  <rect x="788" y="272" width="244" height="200" rx="12" fill="#0d1828"/>
  <rect x="798" y="290" width="160" height="8" rx="4" fill="white" opacity="0.3"/>
  <rect x="798" y="318" width="224" height="36" rx="6" fill="#1a2535"/>
  <circle cx="818" cy="336" r="10" fill="#c9a84c" opacity="0.3"/>
  <rect x="834" y="330" width="80" height="6" rx="3" fill="white" opacity="0.4"/>
  <rect x="834" y="340" width="60" height="5" rx="3" fill="white" opacity="0.2"/>
  <rect x="962" y="330" width="50" height="10" rx="5" fill="#4abf8a" opacity="0.6"/>
  <rect x="798" y="364" width="224" height="36" rx="6" fill="#1a2535"/>
  <circle cx="818" cy="382" r="10" fill="#bf4a4a" opacity="0.3"/>
  <rect x="834" y="376" width="80" height="6" rx="3" fill="white" opacity="0.4"/>
  <rect x="834" y="386" width="60" height="5" rx="3" fill="white" opacity="0.2"/>
  <rect x="962" y="376" width="50" height="10" rx="5" fill="#bf4a4a" opacity="0.6"/>
  <rect x="798" y="410" width="224" height="36" rx="6" fill="#1a2535"/>
  <circle cx="818" cy="428" r="10" fill="#4a8abf" opacity="0.3"/>
  <rect x="834" y="422" width="80" height="6" rx="3" fill="white" opacity="0.4"/>
  <rect x="834" y="432" width="60" height="5" rx="3" fill="white" opacity="0.2"/>
  <rect x="962" y="422" width="50" height="10" rx="5" fill="#bf4a4a" opacity="0.6"/>
  <!-- Keyboard on desk -->
  <rect x="200" y="565" width="500" height="22" rx="5" fill="#b8b0a0"/>
  <rect x="210" y="568" width="480" height="16" rx="4" fill="#c8c0b0"/>
  <!-- Mouse -->
  <rect x="750" y="560" width="80" height="30" rx="20" fill="#b8b0a0"/>
  <rect x="750" y="560" width="40" height="30" rx="20" fill="#c8c0b0"/>
  <rect x="786" y="560" width="2" height="30" fill="#a8a098"/>
  <!-- Coffee cup -->
  <rect x="980" y="530" width="60" height="70" rx="8" fill="white" opacity="0.9"/>
  <rect x="983" y="533" width="54" height="64" rx="7" fill="#f0ead8"/>
  <rect x="985" y="535" width="50" height="20" rx="5" fill="#8a4820" opacity="0.6"/>
  <rect x="1040" y="548" width="20" height="28" rx="10" fill="none" stroke="white" stroke-width="3" opacity="0.7"/>
</svg>