<svg xmlns="http://www.w3.org/2000/svg" viewBox="0 0 1200 800">
  <defs>
    <linearGradient id="bg" x1="0" y1="0" x2="1" y2="1"><stop offset="0%" stop-color="#080f18"/><stop offset="100%" stop-color="#101c2a"/></linearGradient>
    <linearGradient id="gold" x1="0" y1="0" x2="1" y2="0"><stop offset="0%" stop-color="#c9a84c"/><stop offset="100%" stop-color="#e8c96a"/></linearGradient>
    <linearGradient id="green" x1="0" y1="1" x2="0" y2="0"><stop offset="0%" stop-color="#1a4a2a" stop-opacity="0.3"/><stop offset="100%" stop-color="#2abf6a" stop-opacity="0.8"/></linearGradient>
  </defs>
  <rect width="1200" height="800" fill="url(#bg)"/>
  <!-- Grid -->
  <g opacity="0.04" stroke="#4a8abf" stroke-width="1">
    <line x1="0" y1="133" x2="1200" y2="133"/><line x1="0" y1="266" x2="1200" y2="266"/>
    <line x1="0" y1="400" x2="1200" y2="400"/><line x1="0" y1="533" x2="1200" y2="533"/>
    <line x1="0" y1="666" x2="1200" y2="666"/>
    <line x1="150" y1="0" x2="150" y2="800"/><line x1="300" y1="0" x2="300" y2="800"/>
    <line x1="450" y1="0" x2="450" y2="800"/><line x1="600" y1="0" x2="600" y2="800"/>
    <line x1="750" y1="0" x2="750" y2="800"/><line x1="900" y1="0" x2="900" y2="800"/>
    <line x1="1050" y1="0" x2="1050" y2="800"/>
  </g>
  <!-- Candlestick chart -->
  <!-- Up candles (green) -->
  <rect x="80" y="420" width="18" height="80" fill="#2abf6a" opacity="0.8"/>
  <line x1="89" y1="400" x2="89" y2="520" stroke="#2abf6a" stroke-width="1.5" opacity="0.6"/>
  <rect x="120" y="380" width="18" height="100" fill="#2abf6a" opacity="0.8"/>
  <line x1="129" y1="360" x2="129" y2="500" stroke="#2abf6a" stroke-width="1.5" opacity="0.6"/>
  <rect x="200" y="350" width="18" height="90" fill="#2abf6a" opacity="0.8"/>
  <line x1="209" y1="330" x2="209" y2="460" stroke="#2abf6a" stroke-width="1.5" opacity="0.6"/>
  <rect x="280" y="300" width="18" height="110" fill="#2abf6a" opacity="0.8"/>
  <line x1="289" y1="278" x2="289" y2="430" stroke="#2abf6a" stroke-width="1.5" opacity="0.6"/>
  <rect x="360" y="280" width="18" height="100" fill="#2abf6a" opacity="0.8"/>
  <line x1="369" y1="258" x2="369" y2="400" stroke="#2abf6a" stroke-width="1.5" opacity="0.6"/>
  <rect x="480" y="260" width="18" height="90" fill="#2abf6a" opacity="0.8"/>
  <line x1="489" y1="240" x2="489" y2="370" stroke="#2abf6a" stroke-width="1.5" opacity="0.6"/>
  <rect x="560" y="230" width="18" height="100" fill="#2abf6a" opacity="0.8"/>
  <line x1="569" y1="210" x2="569" y2="350" stroke="#2abf6a" stroke-width="1.5" opacity="0.6"/>
  <rect x="680" y="200" width="18" height="90" fill="#2abf6a" opacity="0.8"/>
  <line x1="689" y1="180" x2="689" y2="310" stroke="#2abf6a" stroke-width="1.5" opacity="0.6"/>
  <rect x="800" y="170" width="18" height="100" fill="#2abf6a" opacity="0.8"/>
  <line x1="809" y1="148" x2="809" y2="290" stroke="#2abf6a" stroke-width="1.5" opacity="0.6"/>
  <rect x="920" y="140" width="18" height="110" fill="#2abf6a" opacity="0.8"/>
  <line x1="929" y1="118" x2="929" y2="268" stroke="#2abf6a" stroke-width="1.5" opacity="0.6"/>
  <rect x="1040" y="120" width="18" height="100" fill="#2abf6a" opacity="0.8"/>
  <line x1="1049" y1="98" x2="1049" y2="238" stroke="#2abf6a" stroke-width="1.5" opacity="0.6"/>
  <!-- Down candles (red) -->
  <rect x="160" y="440" width="18" height="60" fill="#bf4a4a" opacity="0.8"/>
  <line x1="169" y1="425" x2="169" y2="520" stroke="#bf4a4a" stroke-width="1.5" opacity="0.6"/>
  <rect x="240" y="400" width="18" height="70" fill="#bf4a4a" opacity="0.8"/>
  <line x1="249" y1="385" x2="249" y2="490" stroke="#bf4a4a" stroke-width="1.5" opacity="0.6"/>
  <rect x="320" y="340" width="18" height="80" fill="#bf4a4a" opacity="0.8"/>
  <line x1="329" y1="322" x2="329" y2="440" stroke="#bf4a4a" stroke-width="1.5" opacity="0.6"/>
  <rect x="440" y="320" width="18" height="65" fill="#bf4a4a" opacity="0.8"/>
  <line x1="449" y1="305" x2="449" y2="405" stroke="#bf4a4a" stroke-width="1.5" opacity="0.6"/>
  <rect x="640" y="265" width="18" height="60" fill="#bf4a4a" opacity="0.8"/>
  <line x1="649" y1="250" x2="649" y2="345" stroke="#bf4a4a" stroke-width="1.5" opacity="0.6"/>
  <rect x="760" y="230" width="18" height="70" fill="#bf4a4a" opacity="0.8"/>
  <line x1="769" y1="215" x2="769" y2="320" stroke="#bf4a4a" stroke-width="1.5" opacity="0.6"/>
  <rect x="880" y="195" width="18" height="60" fill="#bf4a4a" opacity="0.8"/>
  <line x1="889" y1="180" x2="889" y2="275" stroke="#bf4a4a" stroke-width="1.5" opacity="0.6"/>
  <rect x="1000" y="162" width="18" height="65" fill="#bf4a4a" opacity="0.8"/>
  <line x1="1009" y1="148" x2="1009" y2="245" stroke="#bf4a4a" stroke-width="1.5" opacity="0.6"/>
  <rect x="1120" y="135" width="18" height="70" fill="#bf4a4a" opacity="0.8"/>
  <line x1="1129" y1="120" x2="1129" y2="225" stroke="#bf4a4a" stroke-width="1.5" opacity="0.6"/>
  <!-- Trend line -->
  <polyline points="80,500 200,430 360,380 560,320 760,270 960,220 1150,175" fill="none" stroke="url(#gold)" stroke-width="2.5" stroke-dasharray="8 4" opacity="0.7"/>
  <!-- Area fill under trend -->
  <polygon points="80,500 200,430 360,380 560,320 760,270 960,220 1150,175 1150,700 80,700" fill="url(#green)" opacity="0.15"/>
  <!-- Y axis labels -->
  <text x="10" y="150" font-size="12" fill="white" opacity="0.4" font-family="monospace">200k</text>
  <text x="10" y="280" font-size="12" fill="white" opacity="0.4" font-family="monospace">160k</text>
  <text x="10" y="410" font-size="12" fill="white" opacity="0.4" font-family="monospace">120k</text>
  <text x="10" y="540" font-size="12" fill="white" opacity="0.4" font-family="monospace">80k</text>
  <text x="10" y="670" font-size="12" fill="white" opacity="0.4" font-family="monospace">40k</text>
  <!-- X axis -->
  <rect x="60" y="700" width="1100" height="1" fill="white" opacity="0.15"/>
  <text x="80" y="720" font-size="11" fill="white" opacity="0.3" font-family="monospace">Jan</text>
  <text x="230" y="720" font-size="11" fill="white" opacity="0.3" font-family="monospace">Feb</text>
  <text x="380" y="720" font-size="11" fill="white" opacity="0.3" font-family="monospace">Mar</text>
  <text x="530" y="720" font-size="11" fill="white" opacity="0.3" font-family="monospace">Apr</text>
  <text x="680" y="720" font-size="11" fill="white" opacity="0.3" font-family="monospace">Mai</text>
  <text x="830" y="720" font-size="11" fill="white" opacity="0.3" font-family="monospace">Jun</text>
  <text x="980" y="720" font-size="11" fill="white" opacity="0.3" font-family="monospace">Jul</text>
  <text x="1100" y="720" font-size="11" fill="white" opacity="0.3" font-family="monospace">Aug</text>
  <!-- Stats overlay -->
  <rect x="880" y="520" width="290" height="160" rx="12" fill="#0d1828" opacity="0.95"/>
  <rect x="880" y="520" width="290" height="4" rx="4" fill="url(#gold)"/>
  <text x="900" y="545" font-size="12" fill="white" opacity="0.6" font-family="sans-serif">Vermögensentwicklung 2024</text>
  <text x="900" y="575" font-size="28" fill="#2abf6a" font-family="sans-serif" font-weight="bold">+34.8%</text>
  <text x="900" y="598" font-size="12" fill="white" opacity="0.4" font-family="sans-serif">CHF 12.8 Mrd verwaltetes Vermögen</text>
  <rect x="900" y="615" width="100" height="20" rx="6" fill="#2abf6a" opacity="0.15"/>
  <text x="912" y="629" font-size="11" fill="#2abf6a" font-family="sans-serif">▲ Bullischer Trend</text>
  <rect x="1010" y="615" width="100" height="20" rx="6" fill="#c9a84c" opacity="0.15"/>
  <text x="1022" y="629" font-size="11" fill="#c9a84c" font-family="sans-serif">FINMA konform</text>
  <text x="900" y="666" font-size="10" fill="white" opacity="0.3" font-family="sans-serif">Stand: März 2024 · SwizKote Bank AG</text>
</svg>